<?xml version="1.0" standalone="no"?>
<!DOCTYPE svg PUBLIC "-//W3C//DTD SVG 1.1//EN" "http://www.w3.org/Graphics/SVG/1.1/DTD/svg11.dtd" >
<svg xmlns="http://www.w3.org/2000/svg" xmlns:svg="http://www.w3.org/2000/svg" xmlns:xlink="http://www.w3.org/1999/xlink" viewBox="0 0 1024 1024"><path d="M834.68 886.34L820.35 878.18L774.61 836.38L756.28 815.77L729.46 806.33L702.17 780.84L682.37 728.24V950.5L642.45 1009.16V784.21L593.8 814.64L569.04 831.1L530.34 876.52L492.17 904.35L466.58 920.71L445.65 939.88L420.97 943.97L405.2 934.45L501.92 858.07L528.06 834.8L567 805.9L611.19 734.38L620.15 698.55H468.5V680.07H624.33V609.27L616.21 623.7L571.34 624.7H559.21L516.03 592.25L505.15 617.88L643.91 551.59L696.94 552.38L737.69 537.24L778.5 501.59L779.46 511.42L821.23 565.02L811.66 559.23L787.65 570.84L785.59 574.48L749.71 602.55L715.01 593.84L691.65 575.29V686.85H793.24L850.07 650.77L889.3 676.47V692.66H691.49V712.36L789.33 780.04L834.11 813.32L844.12 845.29L900.48 865.7L919.13 869.84L922.25 870.5L944.78 887.69L905.43 923.44ZM39.05 850.38L170.87 829.11L202.33 830.15V638.1H40.69V616.41H216.94V443.27L279.39 474.24L269 488.78L283.12 498.73V580.38H298.66L349.37 561.87L425.94 599.38V622.37H274.71V801.27L366.61 797.77L421.06 771.21L442.78 783.46L340.15 827.43L263.8 850.69L287.89 869.49L77.81 909.38L71.75 908.68L79.23 922.61L78.56 925.09ZM878.17 597.75L827.05 565.37L823.86 535.44L763.71 484L777.22 474.63L749.53 417.18H623.43L569.65 487.82L518.09 525.32L472.28 570.62L453.1 644.83L389.9 670.62L365.82 657.76L413.15 628.44L452.25 574.48L495.53 527.55L537.1 480.17L551.28 414.07H398.6L429.67 442.66L398.87 431.06L374.02 464.8L351.54 431.57L368.03 408.19L335.63 403.98L328.39 375.08L341.61 363.38L306.38 409.75L250.59 413.04L185.13 414.96L111.38 463.35L76.29 436.27L75.98 441.58L69.74 459.22L66.63 444.33L54.93 395.42L76.72 393.37L82.71 387.65L145.79 404.63L155.78 331.62L154 292.67L176.46 194.54L205.15 165.51L172.68 155.23H55.6V118.8H293.41L363.58 58.07L427.21 118.18V121.68H262.83L230.92 179.72L242.79 196.54L216.26 290.72L198.73 296.52L167.93 359.49L147.17 386.62L169.2 371.77L305.71 356.8L354.89 346.02L327.42 331.13L303.77 304.75L270.7 259.78L256.82 232.57L258.55 242.74L301.69 274.35L335.13 310.12L352.32 334.48L381.78 347.09L407.2 386.94L423.35 393.15L424.96 405.03H580.83L583.2 328.69L599.62 299.09H449.91V291.92H596.09L635.31 212.5L620.76 189.32H410.5V160.36H619.24L619.77 118.34L647.41 67.7L637.99 42.11L711.66 61.64L732.96 59.3L706.23 66.97L707.88 143.32L678.16 142.78H790.48L863.29 111.94L929.5 150.15V183.67H690.49L686.59 210.45L669.72 298.41H806.26L845.09 251.16L912.34 291.21V317.62H710.13L751.46 386.99L790.02 409.19L780.8 412.39H855.73L908.17 349.5L972.69 416.6V434.01H797.97L837.65 459.11L833.5 493.92L866.49 520.9L896.65 551.42L954.16 558.95L991.7 616.37L933.9 655.28L873.01 641.09ZM667.03 316.39L647.38 352.41L613.94 395.65H724.61L709.04 373.53L718.9 322.19L692.55 317.87Z" fill="black"></path></svg>