<?xml version="1.0" standalone="no"?>
<!DOCTYPE svg PUBLIC "-//W3C//DTD SVG 1.1//EN" "http://www.w3.org/Graphics/SVG/1.1/DTD/svg11.dtd" >
<svg xmlns="http://www.w3.org/2000/svg" xmlns:svg="http://www.w3.org/2000/svg" xmlns:xlink="http://www.w3.org/1999/xlink" viewBox="0 0 1024 1024"><path d="M853.0 901.0 828.0 883.0 782.0 842.0 760.0 819.0 738.0 794.0 717.0 767.0 702.0 745.0V958.0L638.0 990.0V782.0L596.0 824.0L569.0 846.0L541.0 868.0L511.0 888.0L480.0 905.0L448.0 922.0L414.0 934.0L409.0 926.0L490.0 859.0L515.0 837.0L561.0 788.0L602.0 737.0L619.0 710.0H454.0V689.0H638.0V604.0L604.0 608.0L573.0 609.0H540.0L507.0 607.0L506.0 598.0L626.0 565.0L677.0 548.0L723.0 530.0L762.0 511.0L767.0 522.0L809.0 560.0L810.0 578.0L789.0 569.0L766.0 577.0L742.0 584.0L717.0 591.0L702.0 594.0V689.0H783.0L837.0 635.0L902.0 689.0V710.0H702.0V713.0L790.0 786.0L838.0 819.0L862.0 833.0L885.0 846.0L909.0 856.0L932.0 866.0L964.0 880.0L903.0 931.0ZM37.0 863.0 182.0 829.0 204.0 823.0V619.0H55.0V597.0H204.0V452.0L268.0 463.0L284.0 474.0L268.0 483.0V597.0H298.0L352.0 544.0L417.0 597.0V619.0H268.0V807.0L383.0 780.0L428.0 770.0L432.0 779.0L349.0 817.0L270.0 849.0L268.0 850.0L96.0 912.0L86.0 916.0L79.0 935.0L64.0 923.0ZM860.0 598.0 831.0 566.0 804.0 531.0 780.0 496.0 759.0 459.0 743.0 425.0H605.0L571.0 484.0L531.0 538.0L486.0 587.0L437.0 629.0L383.0 666.0L377.0 658.0L424.0 614.0L465.0 567.0L503.0 517.0L536.0 462.0L554.0 425.0H415.0L414.0 436.0L395.0 451.0L370.0 448.0L355.0 429.0L351.0 412.0L347.0 394.0L341.0 376.0L340.0 374.0L295.0 393.0L263.0 404.0L203.0 424.0L120.0 448.0L95.0 455.0L92.0 456.0L84.0 475.0L70.0 461.0L49.0 400.0L59.0 398.0L83.0 395.0L128.0 389.0L147.0 317.0L156.0 287.0L177.0 200.0L187.0 147.0L188.0 140.0H46.0V119.0H307.0L361.0 65.0L426.0 119.0V140.0H253.0L247.0 162.0L229.0 215.0L207.0 271.0L195.0 300.0L166.0 360.0L151.0 386.0L163.0 384.0L288.0 365.0L335.0 359.0L326.0 339.0L307.0 301.0L285.0 260.0L271.0 239.0L278.0 232.0L316.0 265.0L349.0 299.0L363.0 317.0L376.0 335.0L399.0 373.0L409.0 392.0L413.0 404.0H565.0L589.0 342.0L601.0 302.0H443.0V280.0H607.0L624.0 203.0L627.0 183.0H427.0V162.0H630.0L635.0 127.0L642.0 52.0L643.0 34.0L706.0 51.0L722.0 63.0L704.0 72.0L696.0 136.0L691.0 162.0H810.0L863.0 108.0L928.0 162.0V183.0H687.0L681.0 215.0L663.0 280.0H814.0L858.0 232.0L912.0 280.0V302.0H721.0L755.0 368.0L775.0 403.0L776.0 404.0H857.0L911.0 350.0L975.0 404.0V425.0H790.0L821.0 467.0L846.0 497.0L874.0 525.0L904.0 552.0L935.0 577.0L987.0 613.0L928.0 658.0L893.0 629.0ZM656.0 302.0 636.0 359.0 615.0 404.0H735.0L726.0 381.0L715.0 340.0L709.0 302.0Z" fill="black"></path></svg>